<svg id="Layer_1" data-name="Layer 1" xmlns="http://www.w3.org/2000/svg" width="282.86mm" height="79.32mm" viewBox="0 0 801.8 224.83"><defs><style>.cls-1{fill:#fff;}.cls-2{fill:#2664eb;}.cls-3{fill:#fffffe;}.cls-4{fill:none;}</style></defs><path class="cls-1" d="M129.9.1a1.7,1.7,0,0,0,.7-.1c14.7-1,11.8,23,10.8,32-2.4,21.2-12.7,37.5-26.5,53.1,11.3,4.1,18.3,8.5,18.5,21.8,4,.3,7,.5,10.3,3.6,7.2,6.6,3.6,19.7,4.5,28.6.5,5.1-.4,10.7-3.9,14.4-3.2,3.4-6.4,4.1-10.9,4.2,0,4.1.2,7-1.2,11-2.5,6.9-8.3,10.6-15.1,12.8-1.8.7-3.8,1.1-5.6,1.9a2,2,0,0,0-1,3.1c2.4,4.2,4.9,8.4,7.5,12.5l15.9,25.8c-25.6-11.6-51-24.3-76.7-35.5-5.3-2.3-10.9-4.2-16.4-6.1-7.3-2.4-12.7-3.4-18-9.4-4-5.5-4.2-9.5-4.2-16C-.6,156.7,4.7,138.9,3.9,125.2a30.12,30.12,0,0,1,.4-7.4,13.86,13.86,0,0,1,3.2-6.4c3.1-3.5,6.7-4.3,11.2-4.6a21,21,0,0,1,1.9-9.3c3.8-8.1,9.8-9.8,17.4-12.7A136.22,136.22,0,0,1,26.9,69.4c-6,3.5-12.4,6.8-19.3,7.8-1.8.3-4,.4-5.5-.8C.8,75.4.5,73.8.3,72.3a37.83,37.83,0,0,1,.8-8.9c1.7-10,5-19,11.7-26.7,5.4-6.2,11.8-9.5,19.6-11.5a44.63,44.63,0,0,1,7.3-1.3c3.7-.2,7.5.5,10.3,3C56.8,33,62,54.4,63.5,63.1A140.68,140.68,0,0,1,65,78.9a137.07,137.07,0,0,1,23.1,0,107.51,107.51,0,0,1,15.5-53.2C108.9,16.8,119.1,2.7,129.9.1Z" transform="translate(0 0.03)"/><path class="cls-2" d="M69,85.5a56.22,56.22,0,0,1,5.9-.2A114.29,114.29,0,0,1,104,88.9c6,1.6,17.7,4.5,20.9,10.3,2.1,3.9,1.6,11.3,1.6,16V149c0,4.8.5,11.7-.6,16.2-2,8.5-11.8,8.6-17.9,11.8-7.7,4.1-4.8,11.9-.8,17.5,3,4.6,6,9.5,8.6,14-4.1-1.7-9.5-4.4-13.7-6.4-20.2-9.1-40.4-20-61.6-26.5-16.1-5-15.2-9-15.2-24.5V114.9a89.43,89.43,0,0,1,.3-11.6c1-6.9,6.1-9,11.7-11.2A126.89,126.89,0,0,1,69,85.5Z" transform="translate(0 0.03)"/><path class="cls-3" d="M51.4,146.5c3.6-.2,3.8,2.5,5.7,4.9a25.5,25.5,0,0,0,7.1,6A23.73,23.73,0,0,0,92.1,154c2-1.8,5.1-7.2,7.2-7.4,4.8-.4,3.6,4.2,1.7,7.1-8.7,11.6-21.2,15.9-35.3,11.7-6.7-2-12.9-7.6-16.3-13.6C48,149.4,49.1,147.5,51.4,146.5Z" transform="translate(0 0.03)"/><path class="cls-3" d="M97.4,111c5.4-.2,9.5,1.9,12.8,6.8,1.8,2.7,4.4,8.9-2.5,8.4-1.8-.2-2.7-4.2-3.6-5.6a7.34,7.34,0,0,0-4.7-3l-.3-.1c-6.1-.3-7.2,3-9.4,7.7a3,3,0,0,1-1.7,1.2c-7-.2-3.4-7.3-.8-10.4A14,14,0,0,1,97.4,111Z" transform="translate(0 0.03)"/><path class="cls-3" d="M52.6,111c7.8-.7,14,4.9,15.5,12.3-.6,1.3-.8,2-2.1,2.6-3.9,2.1-4.8-3-6.1-5.3-1-1.8-3-2.6-4.8-3.1-5.3-.8-7.6,2.9-9.2,7.1a3.24,3.24,0,0,1-4.6,1.2c-3.3-2.1-.3-7.1,1.4-9.4A13.94,13.94,0,0,1,52.6,111Z" transform="translate(0 0.03)"/><path class="cls-2" d="M93.8,79.8c1.8-21.1,5.6-39.6,18.7-56.9C115.6,18.3,126,5.5,132,6.1c6.9.7,3.5,24,2.9,28.1-2.5,18.3-13.4,35.7-26.1,48.9a20.25,20.25,0,0,0-3.3-.9q-4.2-1-8.4-1.8A19.09,19.09,0,0,0,93.8,79.8Z" transform="translate(0 0.03)"/><path class="cls-3" d="M97.2,80.3c1.8-15.4,6.4-31.7,15.4-44.6,1.7-2.5,9.2-12.4,13-7.5,2.3,3.1,1.2,10.5.6,14.2-2.1,11.9-7.9,22.7-14.9,32.4-1.8,2.5-4.1,5-5.7,7.2C102.8,81.4,100,80.8,97.2,80.3Z" transform="translate(0 0.03)"/><path class="cls-2" d="M38.8,29.9c4.4-.5,7.6.9,9.4,5.1C40.6,51.1,30.9,62.2,14.3,69.1a43.21,43.21,0,0,1-8,2.3c-.1-12.2,5.3-26.6,14.8-34.6C25.7,32.9,32.9,30.9,38.8,29.9Z" transform="translate(0 0.03)"/><path class="cls-3" d="M47.4,49c1.3-2.3,3-4.8,4.1-7.2a112.19,112.19,0,0,1,7.5,38c-1.1.1-2.3.2-3.4.4-2.9.6-5.4,1.1-8.2,1.8A19.06,19.06,0,0,0,44,83c-3.3-3.5-10.2-12.7-12.4-16.8,1.1-.9,2.2-1.8,3.3-2.8C40.3,58.7,43.1,54.5,47.4,49Z" transform="translate(0 0.03)"/><path class="cls-2" d="M47.4,49c1.3-2.3,3-4.8,4.1-7.2a112.19,112.19,0,0,1,7.5,38c-1.1.1-2.3.2-3.4.4C54.2,67.9,52.5,60.2,47.4,49Z" transform="translate(0 0.03)"/><path class="cls-2" d="M34.8,63.3C37.2,68,43.4,78.6,47.3,82a19.06,19.06,0,0,0-3.4,1c-3.3-3.5-10.2-12.7-12.4-16.8C32.7,65.2,33.7,64.3,34.8,63.3Z" transform="translate(0 0.03)"/><path class="cls-2" d="M133.4,113.9c9.4,0,7.7,8.1,7.8,14.9.1,5.4.1,11-.2,16.4,0,1-1.1,2.4-1.6,3.3-2.1,1.9-3.2,2-5.9,2.1C133.2,138.8,133.4,125.9,133.4,113.9Z" transform="translate(0 0.03)"/><path class="cls-2" d="M15.8,114l2.6-.2c-.2,8,.1,16.1,0,24.1,0,1.8.3,12-.4,12.7a7.26,7.26,0,0,1-3.8-.8,7,7,0,0,1-2.9-3,9.37,9.37,0,0,1-.6-2.8c-.3-3.5-.6-23.7.5-26A7.26,7.26,0,0,1,15.8,114Z" transform="translate(0 0.03)"/><path class="cls-1" d="M213.5,140.6l15.8,5c-2.4,8.8-6.4,15.3-12.1,19.6s-12.8,6.4-21.4,6.4c-10.7,0-19.5-3.7-26.4-11s-10.3-17.3-10.3-30c0-13.4,3.5-23.8,10.4-31.2s16-11.1,27.3-11.1q14.85,0,24,8.7c3.7,3.4,6.4,8.4,8.2,14.8l-16.1,3.8a16.87,16.87,0,0,0-6-9.9,17.31,17.31,0,0,0-11-3.6,18.13,18.13,0,0,0-14.5,6.4c-3.7,4.3-5.6,11.2-5.6,20.8,0,10.2,1.8,17.4,5.5,21.8a18,18,0,0,0,14.3,6.5,16.82,16.82,0,0,0,11.2-4.1C209.9,150.9,212.2,146.5,213.5,140.6Z" transform="translate(0 0.03)"/><path class="cls-1" d="M239.6,140.3a32,32,0,0,1,3.8-14.9,25.83,25.83,0,0,1,10.7-11,32,32,0,0,1,15.5-3.8c8.8,0,16.1,2.9,21.7,8.6s8.5,13,8.5,21.7-2.8,16.1-8.5,22-12.9,8.7-21.5,8.7a34.06,34.06,0,0,1-15.3-3.6,25.29,25.29,0,0,1-11.1-10.6C240.8,152.6,239.6,147,239.6,140.3Zm15.8.8c0,5.8,1.4,10.2,4.1,13.3a13.5,13.5,0,0,0,20.3,0c2.7-3.1,4.1-7.5,4.1-13.4,0-5.7-1.4-10.1-4.1-13.2a12.85,12.85,0,0,0-10.1-4.6,13.19,13.19,0,0,0-10.2,4.6C256.8,130.9,255.4,135.3,255.4,141.1Z" transform="translate(0 0.03)"/><path class="cls-1" d="M365,170.3H349.6V140.5c0-6.3-.3-10.4-1-12.2a8.76,8.76,0,0,0-3.2-4.3,9.51,9.51,0,0,0-5.4-1.5,12,12,0,0,0-7.2,2.2,11.48,11.48,0,0,0-4.4,5.8c-.8,2.4-1.2,6.9-1.2,13.4v26.4H311.8V111.9h14.3v8.6q7.65-9.9,19.2-9.9a23.37,23.37,0,0,1,9.3,1.8,15.28,15.28,0,0,1,6.4,4.7,16.83,16.83,0,0,1,3,6.5,45.79,45.79,0,0,1,.9,10.4v36.3Z" transform="translate(0 0.03)"/><path class="cls-1" d="M407.4,111.9v12.3H396.8v23.5a58.19,58.19,0,0,0,.3,8.3,4,4,0,0,0,4,2.8,19.86,19.86,0,0,0,6.2-1.5l1.3,12a31.58,31.58,0,0,1-12.2,2.3,19.66,19.66,0,0,1-7.5-1.4,10.49,10.49,0,0,1-4.9-3.6,15.06,15.06,0,0,1-2.2-6,79.26,79.26,0,0,1-.5-10.9V124.3h-7.1V112h7.1V100.4l15.5-9V112h10.6Z" transform="translate(0 0.03)"/><path class="cls-1" d="M451.9,151.7l15.4,2.6a25.66,25.66,0,0,1-9.4,12.9c-4.3,3-9.6,4.4-16,4.4q-15.3,0-22.5-9.9c-3.8-5.3-5.8-12-5.8-20.1,0-9.7,2.5-17.2,7.6-22.7a24.89,24.89,0,0,1,19.2-8.2c8.7,0,15.5,2.9,20.6,8.6s7.4,14.5,7.2,26.4H429.5c.1,4.6,1.4,8.1,3.7,10.7a11.79,11.79,0,0,0,8.9,3.8,9.52,9.52,0,0,0,6.1-2A12.7,12.7,0,0,0,451.9,151.7Zm.9-15.6c-.1-4.5-1.3-7.9-3.5-10.2a10.76,10.76,0,0,0-8-3.5,10.65,10.65,0,0,0-8.4,3.7c-2.2,2.5-3.3,5.8-3.2,10Z" transform="translate(0 0.03)"/><path class="cls-1" d="M473.3,170.3l21-30.1-20.2-28.3H493l10.3,16,10.9-16h18.1l-19.8,27.6,21.6,30.7h-19l-11.9-18.1-12,18.1H473.3Z" transform="translate(0 0.03)"/><path class="cls-1" d="M570.1,111.9v12.3H559.5v23.5a58.19,58.19,0,0,0,.3,8.3,4,4,0,0,0,4,2.8,19.86,19.86,0,0,0,6.2-1.5l1.3,12a31.58,31.58,0,0,1-12.2,2.3,19.66,19.66,0,0,1-7.5-1.4,10.49,10.49,0,0,1-4.9-3.6,15.06,15.06,0,0,1-2.2-6,79.26,79.26,0,0,1-.5-10.9V124.3h-7.1V112H544V100.4l15.5-9V112h10.6Z" transform="translate(0 0.03)"/><path class="cls-1" d="M618.4,140.6V127h35.1v32.1c-3.4,3.3-8.3,6.2-14.8,8.7a54.17,54.17,0,0,1-19.6,3.8c-8.4,0-15.8-1.8-22-5.3A33,33,0,0,1,583,151.1a48.35,48.35,0,0,1-4.7-21.5,46.9,46.9,0,0,1,5.3-22.4,36,36,0,0,1,15.4-15c5.2-2.7,11.6-4,19.3-4q15,0,23.4,6.3c5.6,4.2,9.2,10,10.9,17.4l-16.2,3a17,17,0,0,0-6.4-9.4c-3.1-2.3-7-3.4-11.7-3.4-7.1,0-12.8,2.3-17,6.8S595,120.1,595,129c0,9.6,2.1,16.7,6.4,21.5s9.8,7.2,16.7,7.2a28.46,28.46,0,0,0,10.2-2,33.59,33.59,0,0,0,8.8-4.9V140.6Z" transform="translate(0 0.03)"/><path class="cls-1" d="M668.4,170.3V89.7h26.1c9.9,0,16.3.4,19.3,1.2a20.86,20.86,0,0,1,11.6,7.9c3.1,4,4.7,9.3,4.7,15.7a26.54,26.54,0,0,1-2.7,12.5,22.09,22.09,0,0,1-6.8,7.9,24.1,24.1,0,0,1-8.4,3.8,89.58,89.58,0,0,1-16.9,1.2H684.7v30.4Zm16.3-67v22.9h8.9c6.4,0,10.7-.4,12.9-1.3a10.23,10.23,0,0,0,5.1-4,11.09,11.09,0,0,0,1.8-6.3,10.87,10.87,0,0,0-2.6-7.3,11.39,11.39,0,0,0-6.5-3.6c-1.9-.4-5.8-.5-11.7-.5h-7.9Z" transform="translate(0 0.03)"/><path class="cls-1" d="M761.6,170.3V103.4H737.7V89.7h64v13.6H777.8v66.9H761.6Z" transform="translate(0 0.03)"/><rect class="cls-4" y="0.03" width="801.8" height="224.7"/></svg>