<?xml version="1.0" encoding="utf-8"?>
<!-- Generator: Adobe Illustrator 24.3.0, SVG Export Plug-In . SVG Version: 6.00 Build 0)  -->
<svg version="1.1" id="Layer_1" xmlns="http://www.w3.org/2000/svg" xmlns:xlink="http://www.w3.org/1999/xlink" x="0px" y="0px"
	 viewBox="0 0 801.8 224.7" style="enable-background:new 0 0 801.8 224.7;" xml:space="preserve">
<style type="text/css">
	.st0{fill:#FFFFFF;}
	.st1{fill:#2664EB;}
	.st2{fill:#FFFFFE;}
	.st3{fill:none;}
</style>
<g>
	<path class="st0" d="M129.9,0.1c0.2,0,0.5,0,0.7-0.1C145.3-1,142.4,23,141.4,32c-2.4,21.2-12.7,37.5-26.5,53.1
		c11.3,4.1,18.3,8.5,18.5,21.8c4,0.3,7,0.5,10.3,3.6c7.2,6.6,3.6,19.7,4.5,28.6c0.5,5.1-0.4,10.7-3.9,14.4
		c-3.2,3.4-6.4,4.1-10.9,4.2c0,4.1,0.2,7-1.2,11c-2.5,6.9-8.3,10.6-15.1,12.8c-1.8,0.7-3.8,1.1-5.6,1.9c-1.4,0.6-1.8,1.8-1,3.1
		c2.4,4.2,4.9,8.4,7.5,12.5l15.9,25.8c-25.6-11.6-51-24.3-76.7-35.5c-5.3-2.3-10.9-4.2-16.4-6.1c-7.3-2.4-12.7-3.4-18-9.4
		c-4-5.5-4.2-9.5-4.2-16c-19.2-1.1-13.9-18.9-14.7-32.6c-0.1-2.3-0.1-5.3,0.4-7.4c0.5-2.4,1.6-4.6,3.2-6.4c3.1-3.5,6.7-4.3,11.2-4.6
		c0-3.2,0.5-6.5,1.9-9.3c3.8-8.1,9.8-9.8,17.4-12.7c-4.6-5.6-7.3-9.4-11.1-15.4c-6,3.5-12.4,6.8-19.3,7.8c-1.8,0.3-4,0.4-5.5-0.8
		c-1.3-1-1.6-2.6-1.8-4.1c-0.2-3,0.3-6,0.8-8.9c1.7-10,5-19,11.7-26.7c5.4-6.2,11.8-9.5,19.6-11.5c2.4-0.6,4.8-1.1,7.3-1.3
		c3.7-0.2,7.5,0.5,10.3,3c6.8,6.1,12,27.5,13.5,36.2c0.8,5.3,1.3,10.5,1.5,15.8c6.7-0.7,16.4-0.6,23.1,0
		c0.4-18.8,5.8-37.1,15.5-53.2C108.9,16.8,119.1,2.7,129.9,0.1z"/>
	<path class="st1" d="M69,85.5c1.2-0.2,4.5-0.2,5.9-0.2c9.8-0.1,19.6,1.2,29.1,3.6c6,1.6,17.7,4.5,20.9,10.3
		c2.1,3.9,1.6,11.3,1.6,16l0,17.6l0,16.2c0,4.8,0.5,11.7-0.6,16.2c-2,8.5-11.8,8.6-17.9,11.8c-7.7,4.1-4.8,11.9-0.8,17.5
		c3,4.6,6,9.5,8.6,14c-4.1-1.7-9.5-4.4-13.7-6.4c-20.2-9.1-40.4-20-61.6-26.5c-16.1-5-15.2-9-15.2-24.5l0-16.8v-19.4
		c0-3.8-0.2-7.9,0.3-11.6c1-6.9,6.1-9,11.7-11.2C47.7,88.4,58,86.5,69,85.5z"/>
	<path class="st2" d="M51.4,146.5c3.6-0.2,3.8,2.5,5.7,4.9c1.8,2.3,4.6,4.6,7.1,6c9,5.1,20.4,3.7,27.9-3.4c2-1.8,5.1-7.2,7.2-7.4
		c4.8-0.4,3.6,4.2,1.7,7.1c-8.7,11.6-21.2,15.9-35.3,11.7c-6.7-2-12.9-7.6-16.3-13.6C48,149.4,49.1,147.5,51.4,146.5z"/>
	<path class="st2" d="M97.4,111c5.4-0.2,9.5,1.9,12.8,6.8c1.8,2.7,4.4,8.9-2.5,8.4c-1.8-0.2-2.7-4.2-3.6-5.6c-1-1.6-2.7-2.5-4.7-3
		l-0.3-0.1c-6.1-0.3-7.2,3-9.4,7.7c-0.2,0.4-1.2,1.2-1.7,1.2c-7-0.2-3.4-7.3-0.8-10.4C90,112.8,93.2,111.3,97.4,111z"/>
	<path class="st2" d="M52.6,111c7.8-0.7,14,4.9,15.5,12.3c-0.6,1.3-0.8,2-2.1,2.6c-3.9,2.1-4.8-3-6.1-5.3c-1-1.8-3-2.6-4.8-3.1
		c-5.3-0.8-7.6,2.9-9.2,7.1c-0.9,1.8-3.1,2.1-4.6,1.2c-3.3-2.1-0.3-7.1,1.4-9.4C45.1,113.1,48.7,111.5,52.6,111z"/>
	<path class="st1" d="M93.8,79.8c1.8-21.1,5.6-39.6,18.7-56.9C115.6,18.3,126,5.5,132,6.1c6.9,0.7,3.5,24,2.9,28.1
		c-2.5,18.3-13.4,35.7-26.1,48.9c-0.9-0.3-2.4-0.8-3.3-0.9c-2.8-0.7-5.6-1.3-8.4-1.8C96,80.1,94.9,79.9,93.8,79.8z"/>
	<path class="st2" d="M97.2,80.3c1.8-15.4,6.4-31.7,15.4-44.6c1.7-2.5,9.2-12.4,13-7.5c2.3,3.1,1.2,10.5,0.6,14.2
		c-2.1,11.9-7.9,22.7-14.9,32.4c-1.8,2.5-4.1,5-5.7,7.2C102.8,81.4,100,80.8,97.2,80.3z"/>
	<path class="st1" d="M38.8,29.9c4.4-0.5,7.6,0.9,9.4,5.1c-7.6,16.1-17.3,27.2-33.9,34.1c-3.1,1.2-4.7,1.6-8,2.3
		c-0.1-12.2,5.3-26.6,14.8-34.6C25.7,32.9,32.9,30.9,38.8,29.9z"/>
	<path class="st2" d="M47.4,49c1.3-2.3,3-4.8,4.1-7.2c4.7,12.1,7.2,25,7.5,38c-1.1,0.1-2.3,0.2-3.4,0.4c-2.9,0.6-5.4,1.1-8.2,1.8
		c-1.2,0.2-2.3,0.6-3.4,1c-3.3-3.5-10.2-12.7-12.4-16.8c1.1-0.9,2.2-1.8,3.3-2.8C40.3,58.7,43.1,54.5,47.4,49z"/>
	<path class="st1" d="M47.4,49c1.3-2.3,3-4.8,4.1-7.2c4.7,12.1,7.2,25,7.5,38c-1.1,0.1-2.3,0.2-3.4,0.4C54.2,67.9,52.5,60.2,47.4,49
		z"/>
	<path class="st1" d="M34.8,63.3C37.2,68,43.4,78.6,47.3,82c-1.2,0.2-2.3,0.6-3.4,1c-3.3-3.5-10.2-12.7-12.4-16.8
		C32.7,65.2,33.7,64.3,34.8,63.3z"/>
	<path class="st1" d="M133.4,113.9c9.4,0,7.7,8.1,7.8,14.9c0.1,5.4,0.1,11-0.2,16.4c0,1-1.1,2.4-1.6,3.3c-2.1,1.9-3.2,2-5.9,2.1
		C133.2,138.8,133.4,125.9,133.4,113.9z"/>
	<path class="st1" d="M15.8,114l2.6-0.2c-0.2,8,0.1,16.1,0,24.1c0,1.8,0.3,12-0.4,12.7c-1.3,0.2-2.6-0.3-3.8-0.8
		c-1.2-0.7-2.3-1.7-2.9-3c-0.4-0.9-0.5-1.9-0.6-2.8c-0.3-3.5-0.6-23.7,0.5-26C12.2,115.8,13.8,114.7,15.8,114z"/>
</g>
<g>
	<path d="M213.5,140.6l15.8,5c-2.4,8.8-6.4,15.3-12.1,19.6c-5.6,4.3-12.8,6.4-21.4,6.4c-10.7,0-19.5-3.7-26.4-11
		c-6.9-7.3-10.3-17.3-10.3-30c0-13.4,3.5-23.8,10.4-31.2c6.9-7.4,16-11.1,27.3-11.1c9.9,0,17.9,2.9,24,8.7c3.7,3.4,6.4,8.4,8.2,14.8
		l-16.1,3.8c-1-4.2-2.9-7.5-6-9.9s-6.7-3.6-11-3.6c-6,0-10.8,2.1-14.5,6.4c-3.7,4.3-5.6,11.2-5.6,20.8c0,10.2,1.8,17.4,5.5,21.8
		c3.7,4.3,8.4,6.5,14.3,6.5c4.3,0,8-1.4,11.2-4.1C209.9,150.9,212.2,146.5,213.5,140.6z"/>
	<path d="M239.6,140.3c0-5.1,1.3-10.1,3.8-14.9c2.5-4.8,6.1-8.5,10.7-11c4.6-2.5,9.8-3.8,15.5-3.8c8.8,0,16.1,2.9,21.7,8.6
		c5.6,5.7,8.5,13,8.5,21.7c0,8.8-2.8,16.1-8.5,22c-5.7,5.8-12.9,8.7-21.5,8.7c-5.3,0-10.5-1.2-15.3-3.6c-4.9-2.4-8.5-6-11.1-10.6
		C240.8,152.6,239.6,147,239.6,140.3z M255.4,141.1c0,5.8,1.4,10.2,4.1,13.3c2.7,3.1,6.1,4.6,10.2,4.6c4,0,7.4-1.5,10.1-4.6
		c2.7-3.1,4.1-7.5,4.1-13.4c0-5.7-1.4-10.1-4.1-13.2c-2.7-3.1-6.1-4.6-10.1-4.6c-4,0-7.4,1.5-10.2,4.6
		C256.8,130.9,255.4,135.3,255.4,141.1z"/>
	<path d="M365,170.3h-15.4v-29.8c0-6.3-0.3-10.4-1-12.2c-0.7-1.8-1.7-3.3-3.2-4.3c-1.5-1-3.3-1.5-5.4-1.5c-2.7,0-5.1,0.7-7.2,2.2
		c-2.1,1.5-3.6,3.4-4.4,5.8c-0.8,2.4-1.2,6.9-1.2,13.4v26.4h-15.4v-58.4h14.3v8.6c5.1-6.6,11.5-9.9,19.2-9.9c3.4,0,6.5,0.6,9.3,1.8
		c2.8,1.2,5,2.8,6.4,4.7c1.4,1.9,2.5,4.1,3,6.5c0.6,2.4,0.9,5.9,0.9,10.4V170.3z"/>
	<path d="M407.4,111.9v12.3h-10.6v23.5c0,4.8,0.1,7.5,0.3,8.3c0.2,0.8,0.7,1.4,1.4,2s1.6,0.8,2.6,0.8c1.4,0,3.5-0.5,6.2-1.5l1.3,12
		c-3.6,1.5-7.7,2.3-12.2,2.3c-2.8,0-5.3-0.5-7.5-1.4c-2.2-0.9-3.9-2.1-4.9-3.6c-1-1.5-1.8-3.5-2.2-6c-0.3-1.8-0.5-5.4-0.5-10.9
		v-25.4h-7.1v-12.3h7.1v-11.6l15.5-9v20.6H407.4z"/>
	<path d="M451.9,151.7l15.4,2.6c-2,5.6-5.1,9.9-9.4,12.9c-4.3,3-9.6,4.4-16,4.4c-10.2,0-17.7-3.3-22.5-9.9c-3.8-5.3-5.8-12-5.8-20.1
		c0-9.7,2.5-17.2,7.6-22.7c5.1-5.5,11.4-8.2,19.2-8.2c8.7,0,15.5,2.9,20.6,8.6c5,5.7,7.4,14.5,7.2,26.4h-38.7
		c0.1,4.6,1.4,8.1,3.7,10.7c2.4,2.5,5.3,3.8,8.9,3.8c2.4,0,4.5-0.7,6.1-2S451.1,154.6,451.9,151.7z M452.8,136.1
		c-0.1-4.5-1.3-7.9-3.5-10.2c-2.2-2.3-4.9-3.5-8-3.5c-3.4,0-6.2,1.2-8.4,3.7c-2.2,2.5-3.3,5.8-3.2,10H452.8z"/>
	<path d="M473.3,170.3l21-30.1l-20.2-28.3H493l10.3,16l10.9-16h18.1l-19.8,27.6l21.6,30.7h-19l-11.9-18.1l-12,18.1H473.3z"/>
	<path d="M570.1,111.9v12.3h-10.6v23.5c0,4.8,0.1,7.5,0.3,8.3c0.2,0.8,0.7,1.4,1.4,2s1.6,0.8,2.6,0.8c1.4,0,3.5-0.5,6.2-1.5l1.3,12
		c-3.6,1.5-7.7,2.3-12.2,2.3c-2.8,0-5.3-0.5-7.5-1.4c-2.2-0.9-3.9-2.1-4.9-3.6c-1-1.5-1.8-3.5-2.2-6c-0.3-1.8-0.5-5.4-0.5-10.9
		v-25.4h-7.1v-12.3h7.1v-11.6l15.5-9v20.6H570.1z"/>
	<path d="M618.4,140.6v-13.6h35.1v32.1c-3.4,3.3-8.3,6.2-14.8,8.7c-6.5,2.5-13,3.8-19.6,3.8c-8.4,0-15.8-1.8-22-5.3
		c-6.3-3.5-11-8.6-14.1-15.2c-3.2-6.6-4.7-13.7-4.7-21.5c0-8.4,1.8-15.8,5.3-22.4c3.5-6.5,8.7-11.5,15.4-15c5.2-2.7,11.6-4,19.3-4
		c10,0,17.8,2.1,23.4,6.3c5.6,4.2,9.2,10,10.9,17.4l-16.2,3c-1.1-4-3.3-7.1-6.4-9.4c-3.1-2.3-7-3.4-11.7-3.4c-7.1,0-12.8,2.3-17,6.8
		c-4.2,4.5-6.3,11.2-6.3,20.1c0,9.6,2.1,16.7,6.4,21.5c4.2,4.8,9.8,7.2,16.7,7.2c3.4,0,6.8-0.7,10.2-2c3.4-1.3,6.4-3,8.8-4.9v-10.2
		H618.4z"/>
	<path d="M668.4,170.3V89.7h26.1c9.9,0,16.3,0.4,19.3,1.2c4.6,1.2,8.5,3.8,11.6,7.9c3.1,4,4.7,9.3,4.7,15.7c0,4.9-0.9,9.1-2.7,12.5
		c-1.8,3.4-4.1,6-6.8,7.9c-2.8,1.9-5.6,3.2-8.4,3.8c-3.9,0.8-9.5,1.2-16.9,1.2h-10.6v30.4H668.4z M684.7,103.3v22.9h8.9
		c6.4,0,10.7-0.4,12.9-1.3c2.2-0.8,3.9-2.2,5.1-4c1.2-1.8,1.8-3.9,1.8-6.3c0-2.9-0.9-5.3-2.6-7.3c-1.7-1.9-3.9-3.1-6.5-3.6
		c-1.9-0.4-5.8-0.5-11.7-0.5H684.7z"/>
	<path d="M761.6,170.3v-66.9h-23.9V89.7h64v13.6h-23.9v66.9H761.6z"/>
</g>
<rect class="st3" width="801.8" height="224.7"/>
</svg>
